<svg width="460" height="77" viewBox="0 0 460 77" fill="none" xmlns="http://www.w3.org/2000/svg">
<path d="M0 0H460V77H0V0Z" fill="url(#paint0_linear_1_23)"/>
<path d="M91.8289 63.6066L126 72L118.152 43.1475L91.8289 58.8852V63.6066Z" fill="url(#paint1_linear_1_23)"/>
<path d="M150 58.7573L197.979 64L202.341 30.4466L168.138 39.8835L150 58.7573Z" fill="url(#paint2_linear_1_23)"/>
<path d="M322 29L287.5 10L283.048 42L322 29Z" fill="url(#paint3_linear_1_23)"/>
<path d="M389.5 34.3571L344.853 3.5L338.62 41.4286L389.5 34.3571Z" fill="url(#paint4_linear_1_23)"/>
<path d="M77 28.9836L108.592 8L118.152 43.1475M118.152 43.1475L126 72L91.8289 63.6066V58.8852L118.152 43.1475ZM115 15.375L139.878 70L166 1M159.947 27.8252L205 10L202.341 30.4466M202.341 30.4466L197.979 64L150 58.7573L168.138 39.8835L202.341 30.4466ZM236.148 37.2553L225.23 3L207.033 40.234L241 65.5532L204 73L207.033 58.1064M283 30.6991L252.311 5L244 71L276.607 62.2389V55.8142M283.048 42L287.5 10L322 29L283.048 42ZM283.048 42L279.5 67.5M283.048 42L314 67.5V55.5M334 13.5L324.5 69.5M338.62 41.4286L344.853 3.5L389.5 34.3571L338.62 41.4286ZM338.62 41.4286L334.5 66.5M389.5 69L394 13.5L365.5 7L427 21M25 33.8779L76 2V74L25 58.6107L55.4828 47.6183M0 0H460V77H0V0Z" stroke="#330505" stroke-width="5"/>
<defs>
<linearGradient id="paint0_linear_1_23" x1="230" y1="0" x2="230" y2="77" gradientUnits="userSpaceOnUse">
<stop stop-color="#5F0909"/>
<stop offset="0.9999" stop-color="#FF5D02" stop-opacity="0.578125"/>
<stop offset="1" stop-color="#DA0C0C" stop-opacity="0"/>
<stop offset="1" stop-color="#AB2A2A" stop-opacity="0"/>
</linearGradient>
<linearGradient id="paint1_linear_1_23" x1="230" y1="0" x2="230" y2="77" gradientUnits="userSpaceOnUse">
<stop stop-color="#5F0909"/>
<stop offset="0.9999" stop-color="#FF5D02" stop-opacity="0.578125"/>
<stop offset="1" stop-color="#DA0C0C" stop-opacity="0"/>
<stop offset="1" stop-color="#AB2A2A" stop-opacity="0"/>
</linearGradient>
<linearGradient id="paint2_linear_1_23" x1="230" y1="0" x2="230" y2="77" gradientUnits="userSpaceOnUse">
<stop stop-color="#5F0909"/>
<stop offset="0.9999" stop-color="#FF5D02" stop-opacity="0.578125"/>
<stop offset="1" stop-color="#DA0C0C" stop-opacity="0"/>
<stop offset="1" stop-color="#AB2A2A" stop-opacity="0"/>
</linearGradient>
<linearGradient id="paint3_linear_1_23" x1="230" y1="0" x2="230" y2="77" gradientUnits="userSpaceOnUse">
<stop stop-color="#5F0909"/>
<stop offset="0.9999" stop-color="#FF5D02" stop-opacity="0.578125"/>
<stop offset="1" stop-color="#DA0C0C" stop-opacity="0"/>
<stop offset="1" stop-color="#AB2A2A" stop-opacity="0"/>
</linearGradient>
<linearGradient id="paint4_linear_1_23" x1="230" y1="0" x2="230" y2="77" gradientUnits="userSpaceOnUse">
<stop stop-color="#5F0909"/>
<stop offset="0.9999" stop-color="#FF5D02" stop-opacity="0.578125"/>
<stop offset="1" stop-color="#DA0C0C" stop-opacity="0"/>
<stop offset="1" stop-color="#AB2A2A" stop-opacity="0"/>
</linearGradient>
</defs>
</svg>
