<svg width="72" height="46" viewBox="0 0 72 46" fill="none" xmlns="http://www.w3.org/2000/svg">
<path d="M72 23C72 35.7025 55.8823 46 36 46C16.1177 46 0 35.7025 0 23C0 10.2975 16.1177 0 36 0C55.8823 0 72 10.2975 72 23Z" fill="#2D5876"/>
<path d="M27.02 10.4001C27.2467 10.3601 27.4067 10.3601 27.5 10.4001C27.5667 10.4268 27.6267 10.4868 27.68 10.5801V11.4201C27.6133 13.9001 27.6667 16.3801 27.84 18.8601C27.9467 20.7268 28.1267 22.1668 28.38 23.1801C28.4867 23.5935 28.5733 23.8335 28.64 23.9001C28.6933 23.9401 28.7467 23.9735 28.8 24.0001C28.8533 24.0135 28.98 23.9668 29.18 23.8601C29.6333 23.6335 29.9933 23.5201 30.26 23.5201C30.46 23.5201 30.58 23.5868 30.62 23.7201C30.6467 23.8001 30.6467 23.8935 30.62 24.0001C30.54 24.2268 30.3267 24.4601 29.98 24.7001C29.5933 24.9535 29.1 25.2001 28.5 25.4401C28.2333 25.5335 27.9467 25.5868 27.64 25.6001C27.3467 25.6001 27.1133 25.5535 26.94 25.4601C26.7267 25.3668 26.56 25.2135 26.44 25.0001C26.24 24.6135 26.0467 23.7468 25.86 22.4001C25.8467 22.2935 25.8333 22.1935 25.82 22.1001L25.8 21.7801H23.22L20.64 21.7601L20.42 22.0801C19.14 23.9601 18.1333 25.1401 17.4 25.6201C17.0267 25.8735 16.6867 26.0001 16.38 26.0001C15.78 26.0001 15.2933 25.7268 14.92 25.1801C14.8667 25.1001 14.82 25.0134 14.78 24.9201C14.6067 24.5468 14.5533 24.1468 14.62 23.7201C14.7267 23.1201 14.9533 22.6868 15.3 22.4201C15.38 22.3534 15.46 22.3135 15.54 22.3001C15.6467 22.3001 15.7267 22.3335 15.78 22.4001C15.8733 22.4668 15.9267 22.6001 15.94 22.8001C15.9533 22.9735 16.04 23.1401 16.2 23.3001C16.2667 23.3801 16.3667 23.4535 16.5 23.5201C16.78 23.6668 16.9933 23.7135 17.14 23.6601C17.62 23.5801 18.3867 22.7935 19.44 21.3001C21.4267 18.5401 23.1533 15.6868 24.62 12.7401L25.02 11.9201H25.5V11.7001C25.5133 11.5135 25.5667 11.3601 25.66 11.2401C25.9133 10.8668 26.3 10.6001 26.82 10.4401C26.8867 10.4268 26.9533 10.4135 27.02 10.4001ZM25.52 17.0201L25.48 14.9601V13.6001L25.32 13.9001C24.3333 15.8601 23.18 17.8735 21.86 19.9401L21.6 20.3401L21.68 20.3001C21.84 20.2468 22.5667 20.2201 23.86 20.2201H25.68L25.66 20.0001C25.62 19.4268 25.5733 18.4335 25.52 17.0201Z" fill="#E0DCDC"/>
<path d="M34.834 12.1761L35.237 12.1451H35.268C35.4333 12.1451 35.5677 12.1761 35.671 12.2381C35.7743 12.3415 35.8363 12.4241 35.857 12.4861C35.919 12.5895 35.981 12.8581 36.043 13.2921C36.7457 17.0948 37.6653 20.8768 38.802 24.6381C39.3393 26.3948 39.8457 27.7278 40.321 28.6371L40.476 28.9471L41.313 28.1411C42.615 26.8805 43.9997 25.4338 45.467 23.8011L54.953 13.0131C55.325 12.5998 55.5213 12.3828 55.542 12.3621C55.7487 12.2175 55.9243 12.1451 56.069 12.1451C56.1723 12.1451 56.255 12.1864 56.317 12.2691C56.4203 12.3724 56.4823 12.4861 56.503 12.6101C56.627 12.9201 56.627 13.2818 56.503 13.6951L56.069 15.8031C55.387 19.5025 54.8807 23.2535 54.55 27.0561C54.4053 28.6681 54.4053 30.1458 54.55 31.4891C54.5707 31.9438 54.6327 32.2228 54.736 32.3261C54.8393 32.4295 54.9943 32.4295 55.201 32.3261L55.449 32.2021C55.9037 31.9955 56.1413 31.8921 56.162 31.8921C56.7407 31.6855 57.1437 31.6441 57.371 31.7681C57.681 31.9335 57.7327 32.2125 57.526 32.6051C57.3813 32.9151 57.092 33.2148 56.658 33.5041C55.976 33.9588 55.201 34.3411 54.333 34.6511C53.8783 34.7958 53.4133 34.8681 52.938 34.8681H52.411L52.132 34.7441C51.636 34.4961 51.3467 34.1551 51.264 33.7211C51.0573 33.0184 50.9953 31.6441 51.078 29.5981C51.2227 27.0768 51.605 23.8011 52.225 19.7711C52.287 19.5025 52.318 19.3578 52.318 19.3371L51.419 20.3601L44.258 28.3271C42.6047 30.1045 41.1477 31.5511 39.887 32.6671C39.763 32.7705 39.6803 32.8325 39.639 32.8531C39.577 32.8738 39.4633 32.9048 39.298 32.9461C39.174 32.9461 39.0707 32.9255 38.988 32.8841C38.8433 32.7808 38.678 32.5741 38.492 32.2641C37.7687 31.1275 37.1383 29.8565 36.601 28.4511C35.8363 26.4671 34.989 23.4911 34.059 19.5231L33.873 18.8101L33.842 18.9031C33.8213 18.9858 33.7903 19.0891 33.749 19.2131C33.501 20.3498 33.036 21.9721 32.354 24.0801C31.3 27.2008 30.2873 29.7325 29.316 31.6751C28.1587 33.9485 27.0737 35.2195 26.061 35.4881C25.9163 35.5295 25.72 35.5501 25.472 35.5501C25.0587 35.5088 24.6867 35.4158 24.356 35.2711C23.7567 35.0438 23.3227 34.6821 23.054 34.1861C22.992 34.0828 22.9507 33.8968 22.93 33.6281C22.93 33.2561 22.9817 32.8945 23.085 32.5431C23.3743 31.6958 23.7463 31.1688 24.201 30.9621C24.2837 30.9208 24.3767 30.9001 24.48 30.9001C24.5833 30.9001 24.6763 30.9415 24.759 31.0241C24.9863 31.3135 25.2137 31.5098 25.441 31.6131C25.7923 31.7785 26.1127 31.8818 26.402 31.9231L26.712 31.9541L26.867 31.8921C27.3423 31.6648 28.076 30.3421 29.068 27.9241C30.308 24.8448 31.2587 21.9411 31.92 19.2131C32.3953 17.1878 32.7053 15.4931 32.85 14.1291L32.943 13.6331C33.1083 13.1165 33.563 12.6928 34.307 12.3621C34.4723 12.2795 34.648 12.2175 34.834 12.1761Z" fill="#E0DCDC"/>
</svg>
